<svg width="172" height="32" viewBox="0 0 172 32" fill="none" xmlns="http://www.w3.org/2000/svg">
<path d="M13.4049 16.2645H5.97964V24.7603H0V2.31405H14.4891L15.0477 7.04132H5.97964V11.5372H12.8464L13.4049 16.2645Z" fill="#FF5D4F"/>
<path d="M16.3647 16.6612C16.3647 13.9725 17.2408 11.8898 18.9931 10.4132C20.7673 8.9146 22.9029 8.16529 25.3999 8.16529C28.0283 8.16529 30.1858 8.89256 31.8724 10.3471C33.5808 11.8017 34.4351 13.9614 34.4351 16.8264C34.4351 19.5152 33.548 21.5758 31.7738 23.0083C29.9996 24.4187 27.8312 25.124 25.2685 25.124C22.7058 25.124 20.5811 24.4298 18.8946 23.0413C17.208 21.6529 16.3647 19.5262 16.3647 16.6612ZM22.5415 16.6612C22.5415 17.741 22.7824 18.6116 23.2643 19.2727C23.7462 19.9118 24.4361 20.2314 25.3342 20.2314C26.276 20.2314 26.9988 19.9449 27.5026 19.3719C28.0064 18.7989 28.2583 17.9504 28.2583 16.8264C28.2583 15.7466 28.0173 14.854 27.5355 14.1488C27.0536 13.4215 26.3636 13.0579 25.4656 13.0579C24.5237 13.0579 23.8009 13.3774 23.2972 14.0165C22.7934 14.6556 22.5415 15.5372 22.5415 16.6612Z" fill="#FF5D4F"/>
<path d="M48.0158 24.7603L45.2231 21.3223L42.4961 24.7603H35.7608L41.609 16.7934L35.7608 9.4876L41.9376 8.66116L45.026 12.595L48.1144 8.72727H54.7183L48.6401 17.124L54.7183 24.7603H48.0158Z" fill="#FF5D4F"/>
<path d="M80.5886 24.7603H64.5553V2.28099H70.535V20.0331H80.0301L80.5886 24.7603Z" fill="#FF5D4F"/>
<path d="M85.8573 6.54545C84.9811 6.54545 84.2255 6.22589 83.5903 5.58678C82.9551 4.94766 82.6375 4.18733 82.6375 3.30578C82.6375 2.4022 82.9551 1.63085 83.5903 0.991735C84.2255 0.330578 84.9811 0 85.8573 0C86.7553 0 87.5219 0.330578 88.1572 0.991735C88.8143 1.63085 89.1428 2.4022 89.1428 3.30578C89.1428 4.18733 88.8143 4.94766 88.1572 5.58678C87.5219 6.22589 86.7553 6.54545 85.8573 6.54545ZM82.9003 24.7603V8.72727H88.88V24.7603H82.9003Z" fill="#FF5D4F"/>
<path d="M92.8146 24.7603V1.78512L98.7943 1.42149V9.02479C99.2104 8.80441 99.7252 8.60606 100.338 8.42975C100.974 8.25344 101.62 8.16529 102.277 8.16529C104.84 8.16529 106.756 8.95868 108.027 10.5455C109.297 12.1322 109.932 14.1157 109.932 16.4959C109.932 18.8981 109.297 20.9366 108.027 22.6116C106.778 24.2865 104.752 25.124 101.948 25.124C101.05 25.124 100.141 24.9366 99.2214 24.562C98.3234 24.1873 97.5239 23.7355 96.823 23.2066L95.8373 24.7603H92.8146ZM103.755 16.6281C103.755 15.6804 103.493 14.854 102.967 14.1488C102.463 13.4215 101.729 13.0579 100.766 13.0579C100.525 13.0579 100.207 13.1019 99.8128 13.1901C99.4185 13.2782 99.079 13.3884 98.7943 13.5207V19.2397C99.1009 19.5262 99.4842 19.7686 99.9442 19.9669C100.404 20.1432 100.842 20.2314 101.258 20.2314C102.156 20.2314 102.792 19.8347 103.164 19.0413C103.558 18.2259 103.755 17.4215 103.755 16.6281Z" fill="#FF5D4F"/>
<path d="M112.9 24.7603V8.76033H115.89L117.335 10.3802C117.992 9.93939 118.77 9.55372 119.668 9.22314C120.566 8.89256 121.464 8.72727 122.362 8.72727L123.578 13.5537C122.789 13.5537 121.979 13.6639 121.147 13.8843C120.314 14.1047 119.559 14.4793 118.88 15.0083V24.7603H112.9Z" fill="#FF5D4F"/>
<path d="M129.871 19.3719C129.871 19.6364 129.98 19.8568 130.199 20.0331C130.418 20.2094 130.67 20.2975 130.955 20.2975C131.305 20.2975 131.656 20.2204 132.006 20.0661C132.357 19.9118 132.707 19.6915 133.058 19.405V18.2149H131.218C130.823 18.2149 130.495 18.3251 130.232 18.5455C129.991 18.7438 129.871 19.0193 129.871 19.3719ZM125.402 9.68595C126.235 9.31129 127.286 8.9697 128.556 8.66116C129.827 8.33058 131.119 8.16529 132.433 8.16529C134.602 8.16529 136.245 8.77135 137.362 9.98347C138.479 11.1956 139.037 12.8154 139.037 14.843V24.7603H136.376L135.292 23.5372C134.81 24.022 134.175 24.4077 133.386 24.6942C132.598 24.9807 131.754 25.124 130.856 25.124C128.841 25.124 127.341 24.6171 126.355 23.6033C125.369 22.5895 124.877 21.2562 124.877 19.6033C124.877 17.8623 125.457 16.595 126.618 15.8017C127.779 14.9862 129.279 14.5785 131.119 14.5785H133.025C132.937 14.0937 132.707 13.719 132.335 13.4545C131.962 13.1901 131.502 13.0579 130.955 13.0579C130.407 13.0579 129.761 13.157 129.016 13.3554C128.272 13.5317 127.593 13.7521 126.979 14.0165L125.402 9.68595Z" fill="#FF5D4F"/>
<path d="M142.643 24.7603V8.76033H145.633L147.078 10.3802C147.735 9.93939 148.513 9.55372 149.411 9.22314C150.309 8.89256 151.207 8.72727 152.105 8.72727L153.321 13.5537C152.532 13.5537 151.722 13.6639 150.89 13.8843C150.057 14.1047 149.302 14.4793 148.623 15.0083V24.7603H142.643Z" fill="#FF5D4F"/>
<path d="M159.811 24.8264L159.942 24.4628L153.962 9.32231L159.811 8.72727L162.998 17.7851L166.053 8.72727H172L165.002 26.6446C164.498 27.9449 163.556 29.0689 162.176 30.0165C160.796 30.9862 159.318 31.6474 157.741 32L155.737 27.3388C156.525 27.0083 157.358 26.6226 158.234 26.1818C159.11 25.7631 159.635 25.3113 159.811 24.8264Z" fill="#FF5D4F"/>
</svg>
